<svg width="108" height="18" viewBox="0 0 108 18" fill="none" xmlns="http://www.w3.org/2000/svg">
<path d="M8.31592 2.40332L9.99977 7.2402H15.4488L11.0405 10.2296L12.7243 15.0664L8.31592 12.0771L3.90753 15.0664L5.59138 10.2296L1.18299 7.2402H6.63206L8.31592 2.40332Z" fill="#16498C"/>
<path d="M30.3159 2.40332L31.9998 7.2402H37.4488L33.0405 10.2296L34.7243 15.0664L30.3159 12.0771L25.9075 15.0664L27.5914 10.2296L23.183 7.2402H28.6321L30.3159 2.40332Z" fill="#16498C"/>
<path d="M52.3159 2.40332L53.9998 7.2402H59.4488L55.0405 10.2296L56.7243 15.0664L52.3159 12.0771L47.9075 15.0664L49.5914 10.2296L45.183 7.2402H50.6321L52.3159 2.40332Z" fill="#16498C"/>
<path d="M74.3159 2.40332L75.9998 7.2402H81.4488L77.0405 10.2296L78.7243 15.0664L74.3159 12.0771L69.9075 15.0664L71.5914 10.2296L67.183 7.2402H72.6321L74.3159 2.40332Z" fill="#16498C"/>
<path d="M96.3159 2.40332L97.9998 7.2402H103.449L99.0405 10.2296L100.724 15.0664L96.3159 12.0771L91.9075 15.0664L93.5914 10.2296L89.183 7.2402H94.6321L96.3159 2.40332Z" fill="#16498C"/>
</svg>
