<svg width="30" height="30" viewBox="0 0 30 30" fill="none" xmlns="http://www.w3.org/2000/svg">
<path d="M30 15C30 23.2843 23.2843 30 15 30C6.71573 30 0 23.2843 0 15C0 6.71573 6.71573 0 15 0C23.2843 0 30 6.71573 30 15Z" fill="#133B70"/>
<path d="M14.7 24.5999C18.45 20.7599 22.2 17.3214 22.2 13.0799C22.2 8.83836 18.8421 5.3999 14.7 5.3999C10.5578 5.3999 7.19995 8.83836 7.19995 13.0799C7.19995 17.3214 10.95 20.7599 14.7 24.5999Z" stroke="#FFD500" stroke-width="2" stroke-linecap="round" stroke-linejoin="round"/>
<path d="M14.7 16.0666C16.4752 16.0666 17.9142 14.6339 17.9142 12.8666C17.9142 11.0993 16.4752 9.66657 14.7 9.66657C12.9247 9.66657 11.4857 11.0993 11.4857 12.8666C11.4857 14.6339 12.9247 16.0666 14.7 16.0666Z" stroke="#FFD500" stroke-width="2" stroke-linecap="round" stroke-linejoin="round"/>
</svg>
