<svg width="51" height="50" viewBox="0 0 51 50" fill="none" xmlns="http://www.w3.org/2000/svg">
<path d="M50.3333 25C50.3333 38.8071 39.1404 50 25.3333 50C11.5261 50 0.333252 38.8071 0.333252 25C0.333252 11.1929 11.5261 0 25.3333 0C39.1404 0 50.3333 11.1929 50.3333 25Z" fill="#133B70"/>
<path d="M24.8333 41C31.0833 34.6 37.3333 28.8692 37.3333 21.8C37.3333 14.7308 31.7368 9 24.8333 9C17.9297 9 12.3333 14.7308 12.3333 21.8C12.3333 28.8692 18.5833 34.6 24.8333 41Z" stroke="#FFD500" stroke-width="3" stroke-linecap="round" stroke-linejoin="round"/>
<path d="M24.8333 26.7778C27.792 26.7778 30.1904 24.39 30.1904 21.4444C30.1904 18.4989 27.792 16.1111 24.8333 16.1111C21.8745 16.1111 19.4761 18.4989 19.4761 21.4444C19.4761 24.39 21.8745 26.7778 24.8333 26.7778Z" stroke="#FFD500" stroke-width="3" stroke-linecap="round" stroke-linejoin="round"/>
</svg>
