<svg width="250" height="221" viewBox="0 0 250 221" fill="none" xmlns="http://www.w3.org/2000/svg">
<path d="M177.463 0H72.6612C27.1385 0 0 23.9785 0 64.2005V156.689C0 197.022 27.1385 221 72.6612 221H177.338C222.861 221 250 197.022 250 156.8V64.2005C250.125 23.9785 222.986 0 177.463 0ZM187.593 168.513H62.5312C57.4036 168.513 53.1515 164.756 53.1515 160.225C53.1515 155.695 57.4036 151.938 62.5312 151.938H187.593C192.721 151.938 196.973 155.695 196.973 160.225C196.973 164.756 192.721 168.513 187.593 168.513ZM187.593 118.788H62.5312C57.4036 118.788 53.1515 115.031 53.1515 110.5C53.1515 105.97 57.4036 102.213 62.5312 102.213H187.593C192.721 102.213 196.973 105.97 196.973 110.5C196.973 115.031 192.721 118.788 187.593 118.788ZM187.593 69.0625H62.5312C57.4036 69.0625 53.1515 65.3055 53.1515 60.775C53.1515 56.2445 57.4036 52.4875 62.5312 52.4875H187.593C192.721 52.4875 196.973 56.2445 196.973 60.775C196.973 65.3055 192.721 69.0625 187.593 69.0625Z" fill="#FFD500"/>
</svg>
