<svg width="33" height="30" viewBox="0 0 33 30" fill="none" xmlns="http://www.w3.org/2000/svg">
<path d="M23.431 0H9.59367C3.58318 0 0 3.16458 0 8.47292V20.6792C0 26.0021 3.58318 29.1667 9.59367 29.1667H23.4145C29.425 29.1667 33.0082 26.0021 33.0082 20.6937V8.47292C33.0247 3.16458 29.4415 0 23.431 0ZM24.7685 22.2396H8.25617C7.57917 22.2396 7.01775 21.7437 7.01775 21.1458C7.01775 20.5479 7.57917 20.0521 8.25617 20.0521H24.7685C25.4455 20.0521 26.0069 20.5479 26.0069 21.1458C26.0069 21.7437 25.4455 22.2396 24.7685 22.2396ZM24.7685 15.6771H8.25617C7.57917 15.6771 7.01775 15.1812 7.01775 14.5833C7.01775 13.9854 7.57917 13.4896 8.25617 13.4896H24.7685C25.4455 13.4896 26.0069 13.9854 26.0069 14.5833C26.0069 15.1812 25.4455 15.6771 24.7685 15.6771ZM24.7685 9.11458H8.25617C7.57917 9.11458 7.01775 8.61875 7.01775 8.02083C7.01775 7.42292 7.57917 6.92708 8.25617 6.92708H24.7685C25.4455 6.92708 26.0069 7.42292 26.0069 8.02083C26.0069 8.61875 25.4455 9.11458 24.7685 9.11458Z" fill="#FFD500"/>
</svg>
