<svg width="26" height="25" viewBox="0 0 26 25" fill="none" xmlns="http://www.w3.org/2000/svg">
<path d="M25.5 12.5C25.5 19.4036 19.9036 25 13 25C6.09644 25 0.5 19.4036 0.5 12.5C0.5 5.59644 6.09644 0 13 0C19.9036 0 25.5 5.59644 25.5 12.5Z" fill="#133B70"/>
<path d="M5.5 7.58333C5.5 14.717 11.283 20.5 18.4167 20.5C18.7385 20.5 19.0576 20.4882 19.3736 20.4651C19.7362 20.4385 19.9174 20.4253 20.0825 20.3303C20.2192 20.2516 20.3487 20.1121 20.4172 19.97C20.5 19.7985 20.5 19.5984 20.5 19.1983V16.8506C20.5 16.5141 20.5 16.3458 20.4446 16.2017C20.3957 16.0743 20.3162 15.9608 20.2132 15.8713C20.0967 15.77 19.9385 15.7125 19.6223 15.5975L16.95 14.6257C16.5821 14.492 16.3981 14.4251 16.2236 14.4364C16.0697 14.4464 15.9216 14.499 15.7957 14.5882C15.6531 14.6892 15.5524 14.8571 15.351 15.1928L14.6667 16.3333C12.4584 15.3332 10.6682 13.5407 9.66667 11.3333L10.8072 10.649C11.1429 10.4476 11.3107 10.3469 11.4118 10.2042C11.501 10.0784 11.5536 9.93031 11.5636 9.77642C11.5749 9.60189 11.508 9.41794 11.3742 9.05004L10.4025 6.37767C10.2875 6.06147 10.23 5.90336 10.1287 5.78675C10.0392 5.68374 9.92574 5.60429 9.79835 5.55538C9.65413 5.5 9.4859 5.5 9.14943 5.5H6.80167C6.40157 5.5 6.20151 5.5 6.02998 5.58271C5.88792 5.65122 5.74845 5.78084 5.66975 5.91752C5.57473 6.08256 5.56146 6.26385 5.53491 6.62644C5.51177 6.94238 5.5 7.26148 5.5 7.58333Z" stroke="#FFD500" stroke-width="2" stroke-linecap="round" stroke-linejoin="round"/>
</svg>
