<svg width="51" height="50" viewBox="0 0 51 50" fill="none" xmlns="http://www.w3.org/2000/svg">
<path d="M50.6666 25C50.6666 38.8071 39.4737 50 25.6666 50C11.8595 50 0.666626 38.8071 0.666626 25C0.666626 11.1929 11.8595 0 25.6666 0C39.4737 0 50.6666 11.1929 50.6666 25Z" fill="#133B70"/>
<path d="M11.2916 14.5312C11.2916 27.9069 22.1347 38.75 35.5104 38.75C36.1138 38.75 36.7121 38.728 37.3046 38.6845C37.9844 38.6347 38.3243 38.6098 38.6338 38.4317C38.8901 38.2842 39.133 38.0227 39.2615 37.7563C39.4166 37.4347 39.4166 37.0595 39.4166 36.3094V31.9073C39.4166 31.2764 39.4166 30.9609 39.3127 30.6906C39.2212 30.4517 39.0721 30.2391 38.879 30.0712C38.6604 29.8812 38.3638 29.7734 37.771 29.5578L32.7604 27.7358C32.0705 27.485 31.7255 27.3595 31.3983 27.3808C31.1098 27.3995 30.8321 27.4981 30.5962 27.6653C30.3287 27.8548 30.1399 28.1695 29.7623 28.7991L28.4791 30.9375C24.3387 29.0623 20.9821 25.7014 19.1041 21.5625L21.2426 20.2794C21.872 19.9018 22.1867 19.7129 22.3763 19.4454C22.5435 19.2095 22.6421 18.9318 22.6608 18.6433C22.6821 18.316 22.5566 17.9711 22.3058 17.2813L20.4838 12.2706C20.2682 11.6777 20.1604 11.3813 19.9704 11.1627C19.8026 10.9695 19.5899 10.8205 19.351 10.7288C19.0806 10.625 18.7652 10.625 18.1343 10.625H13.7323C12.9821 10.625 12.607 10.625 12.2853 10.7801C12.019 10.9085 11.7575 11.1516 11.6099 11.4079C11.4318 11.7173 11.4069 12.0572 11.3571 12.7371C11.3137 13.3295 11.2916 13.9278 11.2916 14.5312Z" stroke="#FFD500" stroke-width="3" stroke-linecap="round" stroke-linejoin="round"/>
</svg>
