<svg width="39" height="37" viewBox="0 0 39 37" fill="none" xmlns="http://www.w3.org/2000/svg">
<g clip-path="url(#clip0_9_266)">
<path d="M14.8571 8.55562C13.5864 8.5566 12.9203 8.57265 12.404 8.8341C11.9202 9.0791 11.5268 9.47005 11.2803 9.95091C11 10.4976 11 11.2132 11 12.6444V24.9111C11 26.3423 11 27.058 11.2803 27.6047C11.5268 28.0855 11.9202 28.4765 12.404 28.7214C12.9541 29 13.6741 29 15.1143 29H24.8857C26.3258 29 27.046 29 27.596 28.7214C28.0798 28.4765 28.4732 28.0855 28.7197 27.6047C29 27.058 29 26.3423 29 24.9111V12.6444C29 11.2132 29 10.4976 28.7197 9.95091C28.4732 9.47005 28.0798 9.0791 27.596 8.8341C27.0797 8.57265 26.4137 8.5566 25.1429 8.55562M14.8571 8.55562V11.1111H25.1429V8.55562M14.8571 8.55562V8.18131C14.8571 7.60278 15.0884 7.04796 15.5 6.63889C15.9116 6.22982 16.4699 6 17.052 6H22.948C23.5301 6 24.0884 6.22982 24.5 6.63889C24.9116 7.04796 25.1429 7.60278 25.1429 8.18131V8.55562M23.8571 17.5H20M23.8571 22.6111H20M16.1429 17.5H16.1557M16.1429 22.6111H16.1557" stroke="#042959" stroke-width="3" stroke-linecap="round" stroke-linejoin="round"/>
</g>
<path d="M19.5 1.5C29.5165 1.5 37.5 9.18459 37.5 18.5C37.5 27.8154 29.5165 35.5 19.5 35.5C9.48349 35.5 1.5 27.8154 1.5 18.5C1.5 9.18459 9.48349 1.5 19.5 1.5Z" stroke="#042959" stroke-width="3"/>
<defs>
<clipPath id="clip0_9_266">
<rect width="22" height="27" fill="white" transform="translate(9 4)"/>
</clipPath>
</defs>
</svg>
